<mxfile host="Electron" modified="2024-06-14T02:27:49.524Z" agent="Mozilla/5.0 (Windows NT 10.0; Win64; x64) AppleWebKit/537.36 (KHTML, like Gecko) draw.io/24.5.3 Chrome/124.0.6367.207 Electron/30.0.6 Safari/537.36" etag="jHBBUQFRdRCwCC7HamDN" version="24.5.3" type="device">
  <diagram name="Página-1" id="nG6s463GbjoSbxfAwCEj">
    <mxGraphModel dx="1313" dy="896" grid="1" gridSize="10" guides="1" tooltips="1" connect="1" arrows="1" fold="1" page="1" pageScale="1" pageWidth="827" pageHeight="1169" math="0" shadow="0">
      <root>
        <mxCell id="0" />
        <mxCell id="1" parent="0" />
        <mxCell id="dwq_Y3zrZp9bvuixx3JV-4" value="" style="edgeStyle=orthogonalEdgeStyle;rounded=0;orthogonalLoop=1;jettySize=auto;html=1;" edge="1" parent="1" source="dwq_Y3zrZp9bvuixx3JV-1" target="dwq_Y3zrZp9bvuixx3JV-3">
          <mxGeometry relative="1" as="geometry" />
        </mxCell>
        <mxCell id="dwq_Y3zrZp9bvuixx3JV-9" value="" style="edgeStyle=orthogonalEdgeStyle;rounded=0;orthogonalLoop=1;jettySize=auto;html=1;" edge="1" parent="1" source="dwq_Y3zrZp9bvuixx3JV-1" target="dwq_Y3zrZp9bvuixx3JV-8">
          <mxGeometry relative="1" as="geometry" />
        </mxCell>
        <mxCell id="dwq_Y3zrZp9bvuixx3JV-10" value="" style="edgeStyle=orthogonalEdgeStyle;rounded=0;orthogonalLoop=1;jettySize=auto;html=1;" edge="1" parent="1" source="dwq_Y3zrZp9bvuixx3JV-1" target="dwq_Y3zrZp9bvuixx3JV-8">
          <mxGeometry relative="1" as="geometry" />
        </mxCell>
        <mxCell id="dwq_Y3zrZp9bvuixx3JV-11" value="" style="edgeStyle=orthogonalEdgeStyle;rounded=0;orthogonalLoop=1;jettySize=auto;html=1;" edge="1" parent="1" source="dwq_Y3zrZp9bvuixx3JV-1" target="dwq_Y3zrZp9bvuixx3JV-8">
          <mxGeometry relative="1" as="geometry" />
        </mxCell>
        <mxCell id="dwq_Y3zrZp9bvuixx3JV-14" value="" style="edgeStyle=orthogonalEdgeStyle;rounded=0;orthogonalLoop=1;jettySize=auto;html=1;" edge="1" parent="1" source="dwq_Y3zrZp9bvuixx3JV-1" target="dwq_Y3zrZp9bvuixx3JV-13">
          <mxGeometry relative="1" as="geometry" />
        </mxCell>
        <mxCell id="dwq_Y3zrZp9bvuixx3JV-1" value="SISTEMA DE INFOMRACIÓN" style="rounded=1;whiteSpace=wrap;html=1;" vertex="1" parent="1">
          <mxGeometry x="410" y="40" width="120" height="60" as="geometry" />
        </mxCell>
        <mxCell id="dwq_Y3zrZp9bvuixx3JV-3" value="Aplicación (Web, Escritorio, Móvil)&amp;nbsp;&lt;div&gt;Persistencia de datos (Base de Datos)&lt;/div&gt;" style="shape=document;whiteSpace=wrap;html=1;boundedLbl=1;rounded=1;" vertex="1" parent="1">
          <mxGeometry x="600" y="30" width="120" height="80" as="geometry" />
        </mxCell>
        <mxCell id="dwq_Y3zrZp9bvuixx3JV-17" value="" style="edgeStyle=orthogonalEdgeStyle;rounded=0;orthogonalLoop=1;jettySize=auto;html=1;" edge="1" parent="1" source="dwq_Y3zrZp9bvuixx3JV-8" target="dwq_Y3zrZp9bvuixx3JV-16">
          <mxGeometry relative="1" as="geometry" />
        </mxCell>
        <mxCell id="dwq_Y3zrZp9bvuixx3JV-8" value="Monolítico" style="whiteSpace=wrap;html=1;rounded=1;" vertex="1" parent="1">
          <mxGeometry x="290" y="170" width="120" height="60" as="geometry" />
        </mxCell>
        <mxCell id="dwq_Y3zrZp9bvuixx3JV-38" value="" style="edgeStyle=orthogonalEdgeStyle;rounded=0;orthogonalLoop=1;jettySize=auto;html=1;" edge="1" parent="1" source="dwq_Y3zrZp9bvuixx3JV-13" target="dwq_Y3zrZp9bvuixx3JV-37">
          <mxGeometry relative="1" as="geometry" />
        </mxCell>
        <mxCell id="dwq_Y3zrZp9bvuixx3JV-40" value="" style="edgeStyle=orthogonalEdgeStyle;rounded=0;orthogonalLoop=1;jettySize=auto;html=1;" edge="1" parent="1" source="dwq_Y3zrZp9bvuixx3JV-13" target="dwq_Y3zrZp9bvuixx3JV-39">
          <mxGeometry relative="1" as="geometry" />
        </mxCell>
        <mxCell id="dwq_Y3zrZp9bvuixx3JV-13" value="Distribuido" style="whiteSpace=wrap;html=1;rounded=1;" vertex="1" parent="1">
          <mxGeometry x="530" y="170" width="120" height="60" as="geometry" />
        </mxCell>
        <mxCell id="dwq_Y3zrZp9bvuixx3JV-15" value="BD" style="shape=cylinder3;whiteSpace=wrap;html=1;boundedLbl=1;backgroundOutline=1;size=15;fillColor=#f8cecc;strokeColor=#b85450;" vertex="1" parent="1">
          <mxGeometry x="440" y="160" width="60" height="80" as="geometry" />
        </mxCell>
        <mxCell id="dwq_Y3zrZp9bvuixx3JV-28" value="" style="edgeStyle=orthogonalEdgeStyle;rounded=0;orthogonalLoop=1;jettySize=auto;html=1;" edge="1" parent="1" source="dwq_Y3zrZp9bvuixx3JV-16" target="dwq_Y3zrZp9bvuixx3JV-27">
          <mxGeometry relative="1" as="geometry" />
        </mxCell>
        <mxCell id="dwq_Y3zrZp9bvuixx3JV-30" value="" style="edgeStyle=orthogonalEdgeStyle;rounded=0;orthogonalLoop=1;jettySize=auto;html=1;" edge="1" parent="1" source="dwq_Y3zrZp9bvuixx3JV-16" target="dwq_Y3zrZp9bvuixx3JV-29">
          <mxGeometry relative="1" as="geometry" />
        </mxCell>
        <mxCell id="dwq_Y3zrZp9bvuixx3JV-16" value="El sistema va a estar empaquetado como un todo" style="whiteSpace=wrap;html=1;rounded=1;fillColor=#0050ef;fontColor=#ffffff;strokeColor=#001DBC;" vertex="1" parent="1">
          <mxGeometry x="290" y="250" width="120" height="60" as="geometry" />
        </mxCell>
        <mxCell id="dwq_Y3zrZp9bvuixx3JV-21" value="" style="edgeStyle=orthogonalEdgeStyle;rounded=0;orthogonalLoop=1;jettySize=auto;html=1;" edge="1" parent="1" source="dwq_Y3zrZp9bvuixx3JV-18" target="dwq_Y3zrZp9bvuixx3JV-20">
          <mxGeometry relative="1" as="geometry" />
        </mxCell>
        <mxCell id="dwq_Y3zrZp9bvuixx3JV-23" value="" style="edgeStyle=orthogonalEdgeStyle;rounded=0;orthogonalLoop=1;jettySize=auto;html=1;" edge="1" parent="1" source="dwq_Y3zrZp9bvuixx3JV-18" target="dwq_Y3zrZp9bvuixx3JV-22">
          <mxGeometry relative="1" as="geometry" />
        </mxCell>
        <mxCell id="dwq_Y3zrZp9bvuixx3JV-18" value="Patrón de Software" style="rounded=1;whiteSpace=wrap;html=1;" vertex="1" parent="1">
          <mxGeometry y="50" width="120" height="60" as="geometry" />
        </mxCell>
        <mxCell id="dwq_Y3zrZp9bvuixx3JV-20" value="Conjunto de acciones repetitivas" style="rounded=1;whiteSpace=wrap;html=1;" vertex="1" parent="1">
          <mxGeometry x="160" y="20" width="120" height="60" as="geometry" />
        </mxCell>
        <mxCell id="dwq_Y3zrZp9bvuixx3JV-26" value="" style="edgeStyle=orthogonalEdgeStyle;rounded=0;orthogonalLoop=1;jettySize=auto;html=1;" edge="1" parent="1" source="dwq_Y3zrZp9bvuixx3JV-22" target="dwq_Y3zrZp9bvuixx3JV-25">
          <mxGeometry relative="1" as="geometry" />
        </mxCell>
        <mxCell id="dwq_Y3zrZp9bvuixx3JV-22" value="Creacional&lt;div&gt;Estructural&lt;/div&gt;&lt;div&gt;Comportamental&lt;/div&gt;" style="whiteSpace=wrap;html=1;rounded=1;" vertex="1" parent="1">
          <mxGeometry x="160" y="110" width="120" height="60" as="geometry" />
        </mxCell>
        <mxCell id="dwq_Y3zrZp9bvuixx3JV-35" style="edgeStyle=orthogonalEdgeStyle;rounded=0;orthogonalLoop=1;jettySize=auto;html=1;entryX=-0.011;entryY=0.588;entryDx=0;entryDy=0;entryPerimeter=0;" edge="1" parent="1" source="dwq_Y3zrZp9bvuixx3JV-25" target="dwq_Y3zrZp9bvuixx3JV-32">
          <mxGeometry relative="1" as="geometry">
            <mxPoint x="99.99999999999989" y="500" as="targetPoint" />
            <Array as="points">
              <mxPoint x="90" y="580" />
              <mxPoint x="167" y="580" />
            </Array>
          </mxGeometry>
        </mxCell>
        <mxCell id="dwq_Y3zrZp9bvuixx3JV-50" style="edgeStyle=orthogonalEdgeStyle;rounded=0;orthogonalLoop=1;jettySize=auto;html=1;entryX=0;entryY=0.5;entryDx=0;entryDy=0;strokeColor=#990000;strokeWidth=2;flowAnimation=1;" edge="1" parent="1" source="dwq_Y3zrZp9bvuixx3JV-25" target="dwq_Y3zrZp9bvuixx3JV-39">
          <mxGeometry relative="1" as="geometry">
            <Array as="points">
              <mxPoint x="430" y="240" />
              <mxPoint x="430" y="370" />
            </Array>
          </mxGeometry>
        </mxCell>
        <mxCell id="dwq_Y3zrZp9bvuixx3JV-25" value="Patrón de diseño MVC (Model View Controller)" style="whiteSpace=wrap;html=1;rounded=1;fillColor=#d5e8d4;strokeColor=#82b366;" vertex="1" parent="1">
          <mxGeometry x="30" y="210" width="120" height="60" as="geometry" />
        </mxCell>
        <mxCell id="dwq_Y3zrZp9bvuixx3JV-31" style="edgeStyle=orthogonalEdgeStyle;rounded=0;orthogonalLoop=1;jettySize=auto;html=1;entryX=0.25;entryY=0;entryDx=0;entryDy=0;" edge="1" parent="1" source="dwq_Y3zrZp9bvuixx3JV-27" target="dwq_Y3zrZp9bvuixx3JV-32">
          <mxGeometry relative="1" as="geometry">
            <mxPoint x="250" y="470.0000000000001" as="targetPoint" />
          </mxGeometry>
        </mxCell>
        <mxCell id="dwq_Y3zrZp9bvuixx3JV-27" value="Elegir Stack Tech&lt;div&gt;&lt;br&gt;&lt;/div&gt;&lt;div&gt;WEB (js, html, css, library, php)&lt;/div&gt;" style="whiteSpace=wrap;html=1;rounded=1;fillColor=#fff2cc;strokeColor=#d6b656;" vertex="1" parent="1">
          <mxGeometry x="110" y="290" width="120" height="60" as="geometry" />
        </mxCell>
        <mxCell id="dwq_Y3zrZp9bvuixx3JV-33" value="" style="edgeStyle=orthogonalEdgeStyle;rounded=0;orthogonalLoop=1;jettySize=auto;html=1;" edge="1" parent="1" source="dwq_Y3zrZp9bvuixx3JV-29" target="dwq_Y3zrZp9bvuixx3JV-32">
          <mxGeometry relative="1" as="geometry" />
        </mxCell>
        <mxCell id="dwq_Y3zrZp9bvuixx3JV-29" value="Es decir: Backend y Frontend en un mismo lugar" style="whiteSpace=wrap;html=1;rounded=1;fillColor=#f0a30a;fontColor=#000000;strokeColor=#BD7000;" vertex="1" parent="1">
          <mxGeometry x="290" y="340" width="120" height="60" as="geometry" />
        </mxCell>
        <mxCell id="dwq_Y3zrZp9bvuixx3JV-32" value="&amp;nbsp;admin-biblioteca&lt;div&gt;&lt;span style=&quot;white-space: pre;&quot;&gt;&#x9;&lt;/span&gt;asset&lt;br&gt;&lt;/div&gt;&lt;div&gt;&lt;span style=&quot;white-space: pre;&quot;&gt;&#x9;&lt;/span&gt;&lt;span style=&quot;white-space: pre;&quot;&gt;&#x9;&lt;/span&gt;img&lt;br&gt;&lt;/div&gt;&lt;div&gt;&lt;span style=&quot;white-space: pre;&quot;&gt;&#x9;&lt;/span&gt;&lt;span style=&quot;white-space: pre;&quot;&gt;&#x9;&lt;/span&gt;docs&lt;br&gt;&lt;/div&gt;&lt;div&gt;&lt;span style=&quot;white-space: pre;&quot;&gt;&#x9;&lt;/span&gt;&lt;span style=&quot;white-space: pre;&quot;&gt;&#x9;&lt;/span&gt;css&lt;br&gt;&lt;/div&gt;&lt;div&gt;&lt;span style=&quot;white-space: pre;&quot;&gt;&#x9;&lt;/span&gt;controller&lt;/div&gt;&lt;div&gt;&lt;span style=&quot;white-space: pre;&quot;&gt;&#x9;&lt;/span&gt;&lt;span style=&quot;white-space: pre;&quot;&gt;&#x9;&lt;/span&gt;(&quot;lógica del negocio&quot;)&lt;br&gt;&lt;/div&gt;&lt;div&gt;&lt;span style=&quot;white-space: pre;&quot;&gt;&#x9;&lt;/span&gt;environment&lt;br&gt;&lt;/div&gt;&lt;div&gt;&lt;span style=&quot;white-space: pre;&quot;&gt;&#x9;&lt;/span&gt;&lt;span style=&quot;white-space: pre;&quot;&gt;&#x9;&lt;/span&gt;conexion.php&lt;br&gt;&lt;/div&gt;&lt;div&gt;&lt;span style=&quot;white-space: pre;&quot;&gt;&#x9;&lt;/span&gt;&lt;span style=&quot;white-space: pre;&quot;&gt;&#x9;&lt;/span&gt;config.php&lt;br&gt;&lt;/div&gt;&lt;div&gt;&lt;span style=&quot;white-space: pre;&quot;&gt;&#x9;&lt;/span&gt;&lt;span style=&quot;background-color: initial;&quot;&gt;model&lt;/span&gt;&lt;br&gt;&lt;/div&gt;&lt;div&gt;&lt;span style=&quot;white-space: pre;&quot;&gt;&#x9;&lt;/span&gt;&lt;span style=&quot;white-space: pre;&quot;&gt;&#x9;&lt;/span&gt;(&quot;estructura del negocio&quot;)&lt;/div&gt;&lt;div&gt;&lt;span style=&quot;white-space: pre;&quot;&gt;&#x9;&lt;/span&gt;&lt;span style=&quot;background-color: initial;&quot;&gt;view&lt;/span&gt;&lt;br&gt;&lt;/div&gt;&lt;div&gt;&lt;span style=&quot;white-space: pre;&quot;&gt;&#x9;&lt;/span&gt;&lt;span style=&quot;white-space: pre;&quot;&gt;&#x9;&lt;/span&gt;(&quot;vista del negocio&quot;)&lt;/div&gt;&lt;div&gt;&lt;span style=&quot;white-space: pre;&quot;&gt;&#x9;&lt;/span&gt;&lt;span style=&quot;white-space: pre;&quot;&gt;&#x9;&lt;/span&gt;&lt;br&gt;&lt;/div&gt;" style="whiteSpace=wrap;html=1;rounded=1;align=left;fillColor=#5DA96C;strokeColor=#2D7600;fontColor=#ffffff;" vertex="1" parent="1">
          <mxGeometry x="170" y="440" width="290" height="240" as="geometry" />
        </mxCell>
        <mxCell id="dwq_Y3zrZp9bvuixx3JV-37" value="El sistema va a estar separado en muchas partes (n)" style="whiteSpace=wrap;html=1;rounded=1;fillColor=#0050ef;fontColor=#ffffff;strokeColor=#001DBC;" vertex="1" parent="1">
          <mxGeometry x="450" y="270" width="120" height="60" as="geometry" />
        </mxCell>
        <mxCell id="dwq_Y3zrZp9bvuixx3JV-47" value="" style="edgeStyle=orthogonalEdgeStyle;rounded=0;orthogonalLoop=1;jettySize=auto;html=1;exitX=-0.073;exitY=0.662;exitDx=0;exitDy=0;exitPerimeter=0;flowAnimation=1;" edge="1" parent="1" source="dwq_Y3zrZp9bvuixx3JV-39">
          <mxGeometry relative="1" as="geometry">
            <mxPoint x="549" y="456.9999999999998" as="targetPoint" />
          </mxGeometry>
        </mxCell>
        <mxCell id="dwq_Y3zrZp9bvuixx3JV-49" value="" style="edgeStyle=orthogonalEdgeStyle;rounded=0;orthogonalLoop=1;jettySize=auto;html=1;flowAnimation=1;" edge="1" parent="1" source="dwq_Y3zrZp9bvuixx3JV-39" target="dwq_Y3zrZp9bvuixx3JV-48">
          <mxGeometry relative="1" as="geometry" />
        </mxCell>
        <mxCell id="dwq_Y3zrZp9bvuixx3JV-39" value="Backend&amp;nbsp;&lt;div&gt;Frontend&lt;/div&gt;&lt;div&gt;Separados, pero con una comunicación eficiente (API)&lt;/div&gt;" style="whiteSpace=wrap;html=1;rounded=1;fillColor=#f0a30a;fontColor=#000000;strokeColor=#BD7000;" vertex="1" parent="1">
          <mxGeometry x="619" y="322" width="80" height="110" as="geometry" />
        </mxCell>
        <mxCell id="dwq_Y3zrZp9bvuixx3JV-53" value="" style="edgeStyle=orthogonalEdgeStyle;rounded=0;orthogonalLoop=1;jettySize=auto;html=1;entryX=0;entryY=0.5;entryDx=0;entryDy=0;" edge="1" parent="1" target="dwq_Y3zrZp9bvuixx3JV-56">
          <mxGeometry relative="1" as="geometry">
            <mxPoint x="549" y="516.9999999999998" as="sourcePoint" />
            <mxPoint x="549" y="557" as="targetPoint" />
          </mxGeometry>
        </mxCell>
        <mxCell id="dwq_Y3zrZp9bvuixx3JV-59" style="edgeStyle=orthogonalEdgeStyle;rounded=0;orthogonalLoop=1;jettySize=auto;html=1;" edge="1" parent="1">
          <mxGeometry relative="1" as="geometry">
            <mxPoint x="549" y="516.9999999999998" as="sourcePoint" />
            <mxPoint x="549" y="636.9999999999998" as="targetPoint" />
          </mxGeometry>
        </mxCell>
        <mxCell id="dwq_Y3zrZp9bvuixx3JV-46" value="Backend&lt;div&gt;(Lógica)&lt;/div&gt;&lt;div&gt;Model - Controller&lt;/div&gt;" style="whiteSpace=wrap;html=1;fillColor=#f0a30a;strokeColor=#BD7000;fontColor=#000000;rounded=1;" vertex="1" parent="1">
          <mxGeometry x="494" y="457" width="120" height="60" as="geometry" />
        </mxCell>
        <mxCell id="dwq_Y3zrZp9bvuixx3JV-55" value="" style="edgeStyle=orthogonalEdgeStyle;rounded=0;orthogonalLoop=1;jettySize=auto;html=1;entryX=1;entryY=0.5;entryDx=0;entryDy=0;" edge="1" parent="1" source="dwq_Y3zrZp9bvuixx3JV-48" target="dwq_Y3zrZp9bvuixx3JV-56">
          <mxGeometry relative="1" as="geometry">
            <mxPoint x="766" y="557" as="targetPoint" />
          </mxGeometry>
        </mxCell>
        <mxCell id="dwq_Y3zrZp9bvuixx3JV-62" style="edgeStyle=orthogonalEdgeStyle;rounded=0;orthogonalLoop=1;jettySize=auto;html=1;" edge="1" parent="1" source="dwq_Y3zrZp9bvuixx3JV-48" target="dwq_Y3zrZp9bvuixx3JV-61">
          <mxGeometry relative="1" as="geometry" />
        </mxCell>
        <mxCell id="dwq_Y3zrZp9bvuixx3JV-48" value="Frontend&lt;div&gt;(Visual)&lt;/div&gt;&lt;div&gt;View&lt;/div&gt;" style="whiteSpace=wrap;html=1;fillColor=#f0a30a;strokeColor=#BD7000;fontColor=#000000;rounded=1;" vertex="1" parent="1">
          <mxGeometry x="706" y="457" width="120" height="60" as="geometry" />
        </mxCell>
        <mxCell id="dwq_Y3zrZp9bvuixx3JV-56" value="Elegir Stack Tech&lt;div&gt;&lt;br&gt;&lt;/div&gt;&lt;div&gt;WEB (java, js, html, css)&lt;/div&gt;" style="whiteSpace=wrap;html=1;rounded=1;fillColor=#fff2cc;strokeColor=#d6b656;" vertex="1" parent="1">
          <mxGeometry x="609" y="541.5" width="120" height="60" as="geometry" />
        </mxCell>
        <mxCell id="dwq_Y3zrZp9bvuixx3JV-66" value="" style="edgeStyle=orthogonalEdgeStyle;rounded=0;orthogonalLoop=1;jettySize=auto;html=1;" edge="1" parent="1">
          <mxGeometry relative="1" as="geometry">
            <mxPoint x="549" y="696.9999999999998" as="sourcePoint" />
            <mxPoint x="549" y="737.0000000000002" as="targetPoint" />
          </mxGeometry>
        </mxCell>
        <mxCell id="dwq_Y3zrZp9bvuixx3JV-57" value="java (APIRest)" style="whiteSpace=wrap;html=1;fillColor=#60a917;strokeColor=#2D7600;rounded=1;fontColor=#ffffff;" vertex="1" parent="1">
          <mxGeometry x="494" y="637" width="120" height="60" as="geometry" />
        </mxCell>
        <mxCell id="dwq_Y3zrZp9bvuixx3JV-68" value="" style="edgeStyle=orthogonalEdgeStyle;rounded=0;orthogonalLoop=1;jettySize=auto;html=1;" edge="1" parent="1" source="dwq_Y3zrZp9bvuixx3JV-61" target="dwq_Y3zrZp9bvuixx3JV-67">
          <mxGeometry relative="1" as="geometry" />
        </mxCell>
        <mxCell id="dwq_Y3zrZp9bvuixx3JV-61" value="html, js, css" style="whiteSpace=wrap;html=1;fillColor=#60a917;strokeColor=#2D7600;rounded=1;fontColor=#ffffff;" vertex="1" parent="1">
          <mxGeometry x="706" y="637" width="120" height="60" as="geometry" />
        </mxCell>
        <mxCell id="dwq_Y3zrZp9bvuixx3JV-63" value="" style="shape=flexArrow;endArrow=classic;startArrow=classic;html=1;rounded=0;exitX=1;exitY=0.5;exitDx=0;exitDy=0;" edge="1" parent="1">
          <mxGeometry width="100" height="100" relative="1" as="geometry">
            <mxPoint x="619" y="677" as="sourcePoint" />
            <mxPoint x="699" y="677" as="targetPoint" />
            <Array as="points">
              <mxPoint x="669" y="677" />
            </Array>
          </mxGeometry>
        </mxCell>
        <mxCell id="dwq_Y3zrZp9bvuixx3JV-64" value="API" style="text;html=1;align=center;verticalAlign=middle;whiteSpace=wrap;rounded=0;fillColor=#d80073;fontColor=#ffffff;strokeColor=#A50040;" vertex="1" parent="1">
          <mxGeometry x="629" y="627" width="60" height="30" as="geometry" />
        </mxCell>
        <mxCell id="dwq_Y3zrZp9bvuixx3JV-65" value="Entity&lt;div&gt;Model&lt;/div&gt;&lt;div&gt;IRepository&lt;/div&gt;&lt;div&gt;Service&lt;/div&gt;&lt;div&gt;Controller&lt;/div&gt;" style="whiteSpace=wrap;html=1;rounded=1;" vertex="1" parent="1">
          <mxGeometry x="494" y="737" width="120" height="110" as="geometry" />
        </mxCell>
        <mxCell id="dwq_Y3zrZp9bvuixx3JV-67" value="asset&lt;div&gt;js&lt;/div&gt;&lt;div&gt;view&lt;/div&gt;" style="whiteSpace=wrap;html=1;rounded=1;align=center;" vertex="1" parent="1">
          <mxGeometry x="706" y="757" width="120" height="60" as="geometry" />
        </mxCell>
      </root>
    </mxGraphModel>
  </diagram>
</mxfile>
